HIERARCHY
ROOT reference
{
  OFFSET 0 0 0
  CHANNELS 6 Xposition Yposition Zposition Zrotation Xrotation Yrotation
  JOINT Hips
  {
    OFFSET 21.4504 68.8633 78.1377
    CHANNELS 6 Xposition Yposition Zposition Zrotation Xrotation Yrotation
    JOINT Spine
    {
      OFFSET 0 8.25043 0
      CHANNELS 6 Xposition Yposition Zposition Zrotation Xrotation Yrotation
      JOINT Spine1
      {
        OFFSET 0 26.9735 0
        CHANNELS 6 Xposition Yposition Zposition Zrotation Xrotation Yrotation
        JOINT Neck
        {
          OFFSET 0 26.8627 2.44206
          CHANNELS 6 Xposition Yposition Zposition Zrotation Xrotation Yrotation
          JOINT Head
          {
            OFFSET 0 14.0861 -2.0123
            CHANNELS 6 Xposition Yposition Zposition Zrotation Xrotation Yrotation
            End Site
            {
              OFFSET 0 25.1537 0
            }
          }
        }
        JOINT LeftShoulder
        {
          OFFSET 4.03461 23.8974 -0.31355
          CHANNELS 6 Xposition Yposition Zposition Zrotation Xrotation Yrotation
          JOINT LeftArm
          {
            OFFSET 14.6104 0 0
            CHANNELS 6 Xposition Yposition Zposition Zrotation Xrotation Yrotation
            JOINT LeftForeArm
            {
              OFFSET 28.8903 0 0
              CHANNELS 6 Xposition Yposition Zposition Zrotation Xrotation Yrotation
              JOINT LeftHand
              {
                OFFSET 28.8168 0 0
                CHANNELS 6 Xposition Yposition Zposition Zrotation Xrotation Yrotation
                End Site
                {
                  OFFSET 15.0922 0 0
                }
              }
            }
          }
        }
        JOINT RightShoulder
        {
          OFFSET -4.01401 23.8974 -0.31355
          CHANNELS 6 Xposition Yposition Zposition Zrotation Xrotation Yrotation
          JOINT RightArm
          {
            OFFSET -14.6104 0 0
            CHANNELS 6 Xposition Yposition Zposition Zrotation Xrotation Yrotation
            JOINT RightForeArm
            {
              OFFSET -28.8903 0 0
              CHANNELS 6 Xposition Yposition Zposition Zrotation Xrotation Yrotation
              JOINT RightHand
              {
                OFFSET -28.8168 0 0
                CHANNELS 6 Xposition Yposition Zposition Zrotation Xrotation Yrotation
                End Site
                {
                  OFFSET -15.0922 0 0
                }
              }
            }
          }
        }
      }
    }
    JOINT LeftUpLeg
    {
      OFFSET 10.0615 0 0
      CHANNELS 6 Xposition Yposition Zposition Zrotation Xrotation Yrotation
      JOINT LeftLeg
      {
        OFFSET 0 -36.0896 0
        CHANNELS 6 Xposition Yposition Zposition Zrotation Xrotation Yrotation
        JOINT LeftFoot
        {
          OFFSET 0 -47.1136 0
          CHANNELS 6 Xposition Yposition Zposition Zrotation Xrotation Yrotation
          JOINT LeftToeBase
          {
            OFFSET 0 -6.53997 15.0922
            CHANNELS 6 Xposition Yposition Zposition Zrotation Xrotation Yrotation
            End Site
            {
              OFFSET 0 0 4.0246
            }
          }
        }
      }
    }
    JOINT RightUpLeg
    {
      OFFSET -10.0615 0 0
      CHANNELS 6 Xposition Yposition Zposition Zrotation Xrotation Yrotation
      JOINT RightLeg
      {
        OFFSET 0 -36.0896 0
        CHANNELS 6 Xposition Yposition Zposition Zrotation Xrotation Yrotation
        JOINT RightFoot
        {
          OFFSET 0 -47.1136 0
          CHANNELS 6 Xposition Yposition Zposition Zrotation Xrotation Yrotation
          JOINT RightToeBase
          {
            OFFSET 0 -6.53997 15.0922
            CHANNELS 6 Xposition Yposition Zposition Zrotation Xrotation Yrotation
            End Site
            {
              OFFSET 0 0 4.0246
            }
          }
        }
      }
    }
  }
}
MOTION
Frames:	4
Frame Time:	0.004
0 0 0 0 0 -0 1.16283 53.4567 -123.989 -8.95198 -11.1864 1.86245 -8.88178e-016 8.25043 1.42109e-014 2.28412 59.4434 -0.484505 -1.77636e-015 26.9735 2.84217e-014 0.657085 38.1792 0.592342 1.33227e-015 26.8627 2.44206 14.9845 -2.69116 19.0612 -1.77636e-015 14.0861 -2.0123 -11.3514 -26.0231 13.1501 4.03461 23.8974 -0.31355 0.798232 8.06234 -30.1707 14.6104 1.42109e-014 0 -1.17055 11.4049 -41.4647 28.8903 0 0 11.332 -8.74897 -12.4277 28.8168 0 0 57.6752 -3.06042 8.12403 -4.01401 23.8974 -0.31355 -3.34219 17.4751 29.634 -14.6104 0 7.10543e-015 -6.12576 14.1676 35.7994 -28.8903 0 0 -26.0438 -10.8098 12.6676 -28.8168 0 0 -36.0046 -5.59143 -7.16679 10.0615 0 0 11.1612 -29.3532 4.39343 0 -36.0896 0 -174.553 64.4981 151.15 -8.88178e-016 -47.1136 0 25.8713 -30.3695 27.7254 0 -6.53997 15.0922 -2.48481e-016 -6.36111e-015 1.61513e-016 -10.0615 0 1.42109e-014 0.535158 -67.8156 -13.4411 0 -36.0896 7.10543e-015 70.1573 81.1081 -70.2193 4.44089e-016 -47.1136 0 -14.4286 -20.9282 -8.77691 0 -6.53997 15.0922 -7.95139e-016 -3.18055e-015 -1.59028e-015 
0 0 0 0 0 -0 1.14554 53.4691 -123.647 -8.91289 -11.0506 1.85258 0 8.25043 1.42109e-014 2.44543 59.7326 -0.590827 -4.44089e-016 26.9735 0 0.683441 37.8518 0.579449 2.22045e-016 26.8627 2.44206 14.993 -2.62526 19.0808 3.55271e-015 14.0861 -2.0123 -11.3942 -25.9733 13.1674 4.03461 23.8974 -0.31355 0.500114 8.23071 -29.9848 14.6104 0 -1.42109e-014 -1.11725 11.5178 -41.4817 28.8903 0 0 11.424 -8.72962 -12.6775 28.8168 1.42109e-014 0 57.5334 -3.08822 7.99788 -4.01401 23.8974 -0.31355 -3.29592 17.6437 29.8236 -14.6104 0 -1.42109e-014 -6.656 13.8795 35.7651 -28.8903 -1.42109e-014 0 -25.987 -11.0183 12.361 -28.8168 1.42109e-014 7.10543e-015 -36.5469 -5.78298 -7.34923 10.0615 -1.42109e-014 1.42109e-014 11.2258 -29.2121 4.38157 0 -36.0896 0 -174.446 64.5419 150.934 -8.88178e-016 -47.1136 0 25.6088 -30.0955 27.5724 -8.88178e-016 -6.53997 15.0922 -3.72721e-017 0 -8.69683e-017 -10.0615 0 0 0.99572 -67.7727 -13.6834 8.88178e-016 -36.0896 -3.55271e-015 69.5772 81.853 -69.3648 1.33227e-015 -47.1136 0 -15.0017 -21.3591 -9.49794 1.77636e-015 -6.53997 15.0922 0 3.18055e-015 -0 
0 0 0 0 0 -0 1.14673 53.4881 -123.331 -8.85256 -10.7945 1.86364 8.88178e-016 8.25043 0 2.68188 59.9713 -0.777842 0 26.9735 0 0.692137 37.3975 0.535734 4.44089e-016 26.8627 2.44206 15.8404 -2.31146 19.2174 0 14.0861 -2.0123 -12.784 -25.6391 12.7425 4.03461 23.8974 -0.31355 0.157856 8.4154 -29.83 14.6104 0 -1.42109e-014 -1.04765 11.7426 -41.4125 28.8903 0 0 11.589 -8.71961 -12.9646 28.8168 -1.42109e-014 3.55271e-015 57.2691 -3.11175 7.8929 -4.01401 23.8974 -0.31355 -3.30628 17.904 30.04 -14.6104 1.42109e-014 7.10543e-015 -7.11663 13.479 35.725 -28.8903 1.42109e-014 0 -25.8996 -11.1035 12.085 -28.8168 0 3.55271e-015 -37.2565 -5.8314 -7.53128 10.0615 0 0 11.2065 -29.2332 4.41528 -3.55271e-015 -36.0896 1.42109e-014 -174.489 64.6025 151.063 0 -47.1136 0 25.7803 -29.6855 27.5999 8.88178e-016 -6.53997 15.0922 -1.73937e-016 0 9.93923e-017 -10.0615 0 0 1.70495 -67.827 -12.4134 8.88178e-016 -36.0896 0 71.0323 81.4856 -71.0777 -1.33227e-015 -47.1136 1.42109e-014 -15.0315 -22.0403 -9.6874 0 -6.53997 15.0922 -3.97569e-016 3.18055e-015 1.59028e-015 
0 0 0 0 0 -0 1.14115 53.516 -123.005 -8.79378 -10.5908 1.8767 -8.88178e-016 8.25043 -1.42109e-014 2.82161 60.1884 -0.882985 4.44089e-016 26.9735 2.84217e-014 0.764287 37.0843 0.496388 0 26.8627 2.44206 15.1746 -2.16452 19.0711 0 14.0861 -2.0123 -11.9146 -26.027 12.9953 4.03461 23.8974 -0.31355 -0.0679749 8.68811 -29.6321 14.6104 0 -1.42109e-014 -1.064 11.6834 -41.4693 28.8903 0 7.10543e-015 11.7611 -8.6607 -13.1859 28.8168 -1.42109e-014 -7.10543e-015 57.0327 -3.11835 7.7321 -4.01401 23.8974 -0.31355 -3.26186 17.8617 30.2071 -14.6104 -1.42109e-014 0 -7.47574 13.2641 35.7415 -28.8903 -1.42109e-014 0 -25.8223 -11.2224 11.786 -28.8168 0 -7.10543e-015 -37.9683 -5.90633 -7.73812 10.0615 1.42109e-014 -1.42109e-014 11.1984 -29.1733 4.44429 0 -36.0896 0 -174.56 64.6881 151.128 -1.77636e-015 -47.1136 0 25.5328 -29.416 26.9869 -8.88178e-016 -6.53997 15.0922 1.98785e-016 0 -9.93923e-017 -10.0615 0 1.42109e-014 2.18309 -68.0574 -12.9954 -1.77636e-015 -36.0896 0 70.5299 82.7324 -70.7066 -8.88178e-016 -47.1136 0 -15.2437 -22.1687 -9.87097 1.77636e-015 -6.53997 15.0922 -1.19271e-015 -1.59028e-015 1.59028e-015 
